# AST/ASF file generated using VICON BodyLanguage
# -----------------------------------------------
:version 1.10
:name VICON
:units
  mass 1.0
  length 0.45
  angle deg
:documentation
   .ast/.asf automatically generated from VICON data using
   VICON BodyBuilder and BodyLanguage model FoxedUp or BRILLIANT.MOD
:root
   order TX TY TZ RX RY RZ
   axis XYZ
   position 0 0 0  
   orientation 0 0 0 
:bonedata
  begin
     id 1 
     name lhipjoint
     direction 0.521452 -0.77106 0.36545 
     length 2.0933 
     axis 0 0 0  XYZ
  end
  begin
     id 2 
     name lfemur
     direction 0.34202 -0.939693 0  
     length 6.83441  
     axis 0 0 20  XYZ
    dof rx ry rz
    limits (-160.0 20.0)
           (-70.0 70.0)
           (-60.0 70.0)
  end
  begin
     id 3 
     name ltibia
     direction 0.34202 -0.939693 0   
     length 7.28749   
     axis 0 0 20   XYZ
    dof rx
    limits (-10.0 170.0)
  end
  begin
     id 4 
     name lfoot
     direction 0.100608 -0.276418 0.955757   
     length 1.52195   
     axis -90 7.62852e-016 20   XYZ
    dof rx rz
    limits (-45.0 90.0)
           (-70.0 20.0)
  end
  begin
     id 5 
     name ltoes
     direction 1.53558e-011 -4.21907e-011 1   
     length 0.770459   
     axis -90 7.62852e-016 20   XYZ
    dof rx
    limits (-90.0 20.0)
  end
  begin
     id 6 
     name rhipjoint
     direction -0.488071 -0.788702 0.373812   
     length 2.04648  
     axis 0 0 0  XYZ 
  end
  begin
     id 7 
     name rfemur
     direction -0.34202 -0.939693 0   
     length 6.92583   
     axis 0 0 -20   XYZ
    dof rx ry rz
    limits (-160.0 20.0)
           (-70.0 70.0)
           (-70.0 60.0)
  end
  begin
     id 8 
     name rtibia
     direction -0.34202 -0.939693 0   
     length 7.41043   
     axis 0 0 -20   XYZ
    dof rx
    limits (-10.0 170.0)
 end
 begin
     id 9 
     name rfoot
     direction -0.0784433 -0.215521 0.973343   
     length 1.67708  
     axis -90 -7.62852e-016 -20   XYZ
    dof rx rz
    limits (-45.0 90.0)
           (-20.0 70.0)
  end
  begin
     id 10 
     name rtoes
     direction -1.53551e-011 -4.21842e-011 1   
     length 0.849787   
     axis -90 -7.62852e-016 -20   XYZ
    dof rx
    limits (-90.0 20.0)
  end
  begin
     id 11 
     name lowerback
     direction -0.0122332 0.997575 -0.0685192   
     length 1.98724   
     axis 0 0 0   XYZ
    dof rx ry rz
    limits (-20.0 45.0)
           (-30.0 30.0)
           (-30.0 30.0)
  end
  begin
     id 12 
     name upperback
     direction 0.0182347 0.999724 -0.0148421   
     length 1.99029   
     axis 0 0 0   XYZ
    dof rx ry rz
    limits (-20.0 45.0)
           (-30.0 30.0)
           (-30.0 30.0)
  end
  begin
     id 13 
     name thorax
     direction 0.0242908 0.99956 0.0170184   
     length 1.99573   
     axis 0 0 0   XYZ
    dof rx ry rz
    limits (-20.0 45.0)
           (-30.0 30.0)
           (-30.0 30.0)
  end
  begin
     id 14 
     name lowerneck
     direction 0.0654488 0.985533 0.156338   
     length 1.4285   
     axis 0 0 0   XYZ
    dof rx ry rz
    limits (-20.0 45.0)
           (-30.0 30.0)
           (-30.0 30.0)
  end
  begin
     id 15 
     name upperneck
     direction -0.02953 0.998556 -0.0448842   
     length 1.44709   
     axis 0 0 0   XYZ
    dof rx ry rz
    limits (-20.0 45.0)
           (-30.0 30.0)
           (-30.0 30.0)
  end
  begin
     id 16
     name head
     direction -0.0155588 0.999386 -0.0314063  
     length 1.44689  
     axis 0 0 0   XYZ
    dof rx ry rz
    limits (-20.0 45.0)
           (-30.0 30.0)
           (-30.0 30.0)
  end
  begin
     id 17 
     name lclavicle
     direction 0.968229 0.236071 -0.0824755  
     length 3.60593  
     axis 0 0 0   XYZ
    dof ry rz
    limits (-20.0 10.0)
           (0.0 20.0)
  end
  begin
     id 18 
     name lhumerus
     direction 1 -4.48968e-011 7.8138e-029   
     length 5.06035   
     axis 180 -30 -90   XYZ
    dof rx ry rz
    limits (-60.0 90.0)
           (-90.0 90.0)
           (-90.0 90.0)
  end
  begin
     id 19
     name lradius
     direction 1 -4.48967e-011 9.02887e-028   
     length 3.1478   
     axis 180 -30 -90   XYZ
    dof rx
    limits (-10.0 170.0)
  end
  begin
     id 20
     name lwrist
     direction 1 -4.48961e-011 7.20928e-028   
     length 1.5739   
     axis -5.52449e-016 90 90   XYZ
    dof ry
    limits (-180.0 0.0)
 end
  begin
     id 21 
     name lhand
     direction 1 -4.48972e-011 1.44186e-027   
     length 0.606747   
     axis -9.20027e-016 90 90   XYZ
    dof rx rz
    limits (-90.0 90.0)
           (-45.0 45.0)
  end
  begin
     id 22 
     name lfingers
     direction 1 -4.48943e-011 2.88371e-027   
     length 0.489175   
     axis -1.84005e-015 90 90   XYZ
    dof rx
    limits (0.0 90.0)
  end
  begin
     id 23
     name lthumb
     direction 0.707107 -6.34917e-011 0.707107   
     length 0.70236   
     axis -90 45 2.85299e-015   XYZ
    dof rx rz
    limits (-45.0 45.0)
           (-45.0 45.0)
  end
  begin
     id 24 
     name rclavicle
     direction -0.978165 0.207816 0.0022268   
     length 3.35425  
     axis 0 0 0   XYZ 
    dof ry rz
    limits (-10.0 20.0)
           (-20.0 0.0)
  end
  begin
     id 25 
     name rhumerus
     direction -1 -4.48964e-011 -4.02159e-027  
     length 5.12273   
     axis 180 30 90   XYZ
    dof rx ry rz
    limits (-90.0 60.0)
           (-90.0 90.0)
           (-90.0 90.0)
  end
  begin
     id 26 
     name rradius
     direction -1 -4.48966e-011 1.62746e-027   
     length 3.422   
     axis 180 30 90   XYZ
    dof rx
    limits (-10.0 170.0)
  end
  begin
     id 27 
     name rwrist
     direction -1 -4.4896e-011 7.20928e-028   
     length 1.711   
     axis -5.52449e-016 -90 -90   XYZ
    dof ry
    limits (-180.0 0.0)
  end
  begin
     id 28
     name rhand
     direction -1 -4.48979e-011 1.44186e-027   
     length 0.704599   
     axis -9.20027e-016 -90 -90   XYZ
    dof rx rz
    limits (-90.0 90.0)
           (-45.0 45.0)
  end
  begin
     id 29
     name rfingers
     direction -1 -4.48962e-011 2.88371e-027   
     length 0.568066   
     axis -1.84005e-015 -90 -90   XYZ
    dof rx
    limits (0.0 90.0)
  end
  begin
     id 30
     name rthumb
     direction -0.707107 -6.34949e-011 0.707107   
     length 0.815633   
     axis -90 -45 -2.85299e-015   XYZ
    dof rx rz
    limits (-45.0 45.0)
           (-45.0 45.0)
  end
:hierarchy
  begin
    root lhipjoint rhipjoint lowerback
    lhipjoint lfemur
    lfemur ltibia
    ltibia lfoot
    lfoot ltoes
    rhipjoint rfemur
    rfemur rtibia
    rtibia rfoot
    rfoot rtoes
    lowerback upperback
    upperback thorax
    thorax lowerneck lclavicle rclavicle
    lowerneck upperneck
    upperneck head
    lclavicle lhumerus
    lhumerus lradius
    lradius lwrist
    lwrist lhand lthumb
    lhand lfingers
    rclavicle rhumerus
    rhumerus rradius
    rradius rwrist
    rwrist rhand rthumb
    rhand rfingers
  end

#!OML:ASF E:\id_vita\Project 1\Capture day 1\Session 1\Male1.ASF
:FULLY-SPECIFIED
:DEGREES
1
root -23.2985 15.9996 3.47674 -177.432 -1.59693 -179.938
lowerback -5.91307 1.2469 -6.14316
upperback -0.243851 2.03741 -0.745273
thorax 2.87706 0.910681 2.83905
lowerneck -1.08983 3.57158 8.97249
upperneck -17.2777 3.59579 -2.57444
head -4.79337 0.831114 -2.3701
rclavicle -2.98363e-014 3.97569e-015
rhumerus -28.6214 -29.3732 -80.4343
rradius 13.3994
rwrist 28.1033
rhand -13.0613 25.2016
rfingers 7.12502
rthumb 13.0341 -4.3712
lclavicle -2.98363e-014 3.97569e-015
lhumerus -26.5699 34.1173 73.4124
lradius 9.54018
lwrist -25.4363
lhand -12.8343 46.6127
lfingers 7.12502
lthumb 13.2529 76.1714
rfemur -4.84331 7.36393 7.47832
rtibia 14.5347
rfoot -0.860656 -20.1686
rtoes -16.0601
lfemur -8.97138 5.16723 -23.2511
ltibia 29.3607
lfoot -23.0811 14.3327
ltoes 0.621235
2
root -23.2959 16.0074 3.47571 -177.422 -1.6195 -179.893
lowerback -5.89904 1.1962 -6.07049
upperback -0.247687 1.9645 -0.719766
thorax 2.87354 0.876092 2.81891
lowerneck -1.20232 3.57962 8.72471
upperneck -17.0416 3.65135 -2.19158
head -4.71348 0.863828 -2.20727
rclavicle -8.1129e-015 -3.97569e-014
rhumerus -28.7053 -29.2535 -80.4333
rradius 13.5428
rwrist 27.4621
rhand -13.1069 25.7091
rfingers 7.12502
rthumb 12.9901 -3.86647
lclavicle -8.1129e-015 -3.97569e-014
lhumerus -26.7331 34.2099 73.2557
lradius 9.63267
lwrist -25.5724
lhand -12.601 46.2699
lfingers 7.12502
lthumb 13.4778 75.8138
rfemur -4.50632 7.44975 7.56356
rtibia 13.8663
rfoot -0.353333 -20.1762
rtoes -16.224
lfemur -9.08702 5.09974 -23.1853
ltibia 29.5972
lfoot -23.4101 14.2398
ltoes 1.52153
3
root -23.2959 16.0131 3.47593 -177.433 -1.45751 -179.731
lowerback -5.86803 1.2413 -5.80652
upperback -0.245833 2.00722 -0.700335
thorax 2.86235 0.902394 2.69392
lowerneck -1.19604 3.53356 8.91522
upperneck -16.965 3.59095 -2.27042
head -4.68948 0.832304 -2.26035
rclavicle 6.04461e-014 -1.82882e-014
rhumerus -28.6496 -28.7259 -80.6585
rradius 13.4668
rwrist 26.5206
rhand -13.2795 26.5619
rfingers 7.12502
rthumb 12.8238 -3.02424
lclavicle 6.04461e-014 -1.82882e-014
lhumerus -26.762 34.2541 73.1838
lradius 9.61145
lwrist -25.6783
lhand -12.6548 46.056
lfingers 7.12502
lthumb 13.4259 75.6033
rfemur -4.45448 7.55515 7.74191
rtibia 13.6562
rfoot -0.232323 -20.0587
rtoes -16.6076
lfemur -9.10673 4.98321 -23.037
ltibia 29.6798
lfoot -23.3964 14.3927
ltoes 1.66388
4
root -23.2946 16.0125 3.48056 -177.41 -1.35153 -179.747
lowerback -5.83474 1.27647 -5.71685
upperback -0.252642 2.04591 -0.756456
thorax 2.83826 0.923401 2.58751
lowerneck -1.32651 3.4196 8.92329
upperneck -16.8452 3.43449 -2.17052
head -4.64238 0.753143 -2.22251
rclavicle 4.19622e-014 7.95139e-016
rhumerus -28.6977 -28.4334 -80.9512
rradius 13.8823
rwrist 26.0669
rhand -13.4832 25.9197
rfingers 7.12502
rthumb 12.6274 -3.67859
lclavicle 4.19622e-014 7.95139e-016
lhumerus -26.773 34.2233 73.0703
lradius 9.64532
lwrist -25.7724
lhand -12.5341 46.1396
lfingers 7.12502
lthumb 13.5423 75.6793
rfemur -4.44302 7.72113 7.71852
rtibia 13.4675
rfoot -0.201216 -20.0671
rtoes -16.5472
lfemur -9.16503 4.88055 -23.0783
ltibia 29.7427
lfoot -23.264 14.6197
ltoes 1.37988
5
root -23.2948 16.0109 3.48439 -177.377 -1.19823 -179.781
lowerback -5.83416 1.3069 -5.66918
upperback -0.264339 2.08276 -0.761972
thorax 2.82449 0.94292 2.55772
lowerneck -1.44811 3.32438 8.86715
upperneck -16.7198 3.30104 -2.10243
head -4.59358 0.692449 -2.18514
rclavicle 3.89028e-015 -4.77083e-015
rhumerus -28.8863 -29.807 -80.2571
rradius 13.6405
rwrist 27.3971
rhand -12.8369 26.2009
rfingers 7.12502
rthumb 13.2504 -3.35792
lclavicle 3.89028e-015 -4.77083e-015
lhumerus -26.8223 34.2846 73.019
lradius 9.68537
lwrist -25.8756
lhand -12.2669 46.2855
lfingers 7.12502
lthumb 13.7998 75.8078
rfemur -4.47801 7.79083 7.64343
rtibia 13.3042
rfoot -0.117745 -19.9318
rtoes -16.5498
lfemur -9.22621 4.66465 -23.1636
ltibia 29.8108
lfoot -23.2423 14.9745
ltoes 1.50927
6
root -23.2934 16.0069 3.48819 -177.381 -0.996966 -179.676
lowerback -5.78337 1.33541 -5.55514
upperback -0.27869 2.11036 -0.661541
thorax 2.77912 0.961029 2.59819
lowerneck -1.49173 3.25954 8.7657
upperneck -16.6185 3.21835 -2.04854
head -4.56236 0.661156 -2.1479
rclavicle -1.40733e-014 3.26007e-014
rhumerus -28.7777 -29.3903 -80.3406
rradius 13.6307
rwrist 27.1673
rhand -13.3209 26.196
rfingers 7.12502
rthumb 12.7839 -3.39261
lclavicle -1.40733e-014 3.26007e-014
lhumerus -26.842 34.484 73.102
lradius 9.61846
lwrist -25.9675
lhand -12.2725 46.4526
lfingers 7.12502
lthumb 13.7944 75.9753
rfemur -4.43301 7.75156 7.72706
rtibia 12.9986
rfoot 0.0154766 -19.6028
rtoes -16.7309
lfemur -9.28192 4.59249 -23.0706
ltibia 29.9176
lfoot -23.1807 15.2973
ltoes 1.5941
7
root -23.2929 16.0064 3.49219 -177.341 -0.807023 -179.611
lowerback -5.76659 1.38222 -5.45627
upperback -0.303618 2.16442 -0.61864
thorax 2.74124 0.991177 2.59032
lowerneck -1.51956 3.15672 8.67073
upperneck -16.5328 3.09672 -1.89171
head -4.54307 0.603048 -2.07906
rclavicle -4.15662e-014 -1.98785e-014
rhumerus -28.7916 -29.932 -80.001
rradius 13.3955
rwrist 27.6863
rhand -13.512 26.6198
rfingers 7.12502
rthumb 12.5996 -2.98023
lclavicle -4.15662e-014 -1.98785e-014
lhumerus -26.8095 34.6021 73.1986
lradius 9.51943
lwrist -26.0708
lhand -12.5822 46.6803
lfingers 7.12502
lthumb 13.4959 76.223
rfemur -4.42392 7.66307 7.77336
rtibia 12.7151
rfoot 0.255166 -19.3547
rtoes -17.1556
lfemur -9.34801 4.39805 -23.0153
ltibia 30.0088
lfoot -23.2854 15.3892
ltoes 2.80384
8
root -23.2924 16.0179 3.49122 -177.314 -0.758496 -179.601
lowerback -5.78113 1.3985 -5.42839
upperback -0.314868 2.18464 -0.613807
thorax 2.73686 1.00187 2.58148
lowerneck -1.56306 3.02762 8.62999
upperneck -16.416 2.94389 -1.70549
head -4.51309 0.526328 -2.00863
rclavicle -3.46693e-014 -8.74653e-015
rhumerus -28.8461 -30.4777 -79.6822
rradius 13.2651
rwrist 28.2221
rhand -14.0026 26.5785
rfingers 7.12502
rthumb 12.1266 -3.05002
lclavicle -3.46693e-014 -8.74653e-015
lhumerus -26.7397 34.647 73.2977
lradius 9.39942
lwrist -26.2084
lhand -12.8248 46.8244
lfingers 7.12502
lthumb 13.2621 76.3825
rfemur -4.37072 7.70117 7.79668
rtibia 12.5573
rfoot 0.428847 -19.4001
rtoes -17.3671
lfemur -9.35287 4.15159 -22.993
ltibia 30.0561
lfoot -23.6509 15.1458
ltoes 4.7167
9
root -23.2915 16.0241 3.48986 -177.341 -0.72072 -179.683
lowerback -5.7504 1.38695 -5.48439
upperback -0.302209 2.17137 -0.629789
thorax 2.73243 0.994342 2.59451
lowerneck -1.51444 2.9748 8.7197
upperneck -16.3774 2.89123 -1.63785
head -4.51283 0.494141 -2.00106
rclavicle -2.00058e-014 7.95139e-016
rhumerus -28.9256 -30.8733 -79.4428
rradius 13.2251
rwrist 28.6645
rhand -13.354 26.7105
rfingers 7.12502
rthumb 12.752 -2.8801
lclavicle -2.00058e-014 7.95139e-016
lhumerus -26.7239 34.7373 73.3153
lradius 9.3464
lwrist -26.2974
lhand -12.8015 46.8481
lfingers 7.12502
lthumb 13.2846 76.4047
rfemur -4.20829 7.74325 7.71542
rtibia 12.2493
rfoot 0.333394 -19.298
rtoes -16.7357
lfemur -9.3328 4.00936 -23.0884
ltibia 30.0973
lfoot -23.7113 15.2965
ltoes 4.93706
10
root -23.2879 16.0233 3.48925 -177.351 -0.667154 -179.685
lowerback -5.76688 1.35087 -5.47469
upperback -0.275635 2.12549 -0.612275
thorax 2.77281 0.970439 2.60488
lowerneck -1.35417 3.01351 8.89917
upperneck -16.4004 2.96511 -1.6922
head -4.53958 0.524329 -2.05166
rclavicle -1.32627e-014 3.97569e-015
rhumerus -28.8938 -30.6557 -79.5896
rradius 13.2771
rwrist 28.3797
rhand -13.6407 27.3971
rfingers 7.12502
rthumb 12.4755 -2.21057
lclavicle -1.32627e-014 3.97569e-015
lhumerus -26.8164 34.8765 73.2094
lradius 9.42762
lwrist -26.3812
lhand -12.5233 46.8085
lfingers 7.12502
lthumb 13.5527 76.3474
rfemur -4.07306 7.77118 7.72704
rtibia 11.9346
rfoot 0.277994 -19.1576
rtoes -16.1892
lfemur -9.32344 3.87921 -23.0924
ltibia 30.1174
lfoot -23.5733 15.5908
ltoes 4.79151
